<?xml version="1.0" encoding="UTF-8" standalone="no"?>
<svg
   width="468"
   height="99.416473"
   viewBox="0 0 468 99.416473"
   fill="none"
   version="1.1"
   id="svg82"
   sodipodi:docname="mongo.svg"
   inkscape:version="1.2.2 (b0a8486541, 2022-12-01)"
   xmlns:inkscape="http://www.inkscape.org/namespaces/inkscape"
   xmlns:sodipodi="http://sodipodi.sourceforge.net/DTD/sodipodi-0.dtd"
   xmlns="http://www.w3.org/2000/svg"
   xmlns:svg="http://www.w3.org/2000/svg">
  <sodipodi:namedview
     id="namedview14"
     pagecolor="#ffffff"
     bordercolor="#000000"
     borderopacity="0.25"
     inkscape:showpageshadow="2"
     inkscape:pageopacity="0.0"
     inkscape:pagecheckerboard="0"
     inkscape:deskcolor="#d1d1d1"
     showgrid="false"
     inkscape:zoom="2.3841463"
     inkscape:cx="234.04604"
     inkscape:cy="50.751918"
     inkscape:window-width="1920"
     inkscape:window-height="1003"
     inkscape:window-x="0"
     inkscape:window-y="0"
     inkscape:window-maximized="1"
     inkscape:current-layer="svg82" />
  <defs
     id="defs86" />
  <rect
     x="0"
     y="0"
     width="468"
     height="99.416473"
     fill="#fafbfc"
     id="rect22"
     style="stroke-width:0.550544" />
  <path
     d="m 89.399,16.706248 c -3.328,-3.949 -6.193,-7.959 -6.779,-8.792 -0.062,-0.061 -0.154,-0.061 -0.216,0 -0.585,0.833 -3.451,4.843 -6.779,8.792 -28.564,36.43 4.499,61.015 4.499,61.015 l 0.277,0.185 c 0.247,3.794 0.863,9.254 0.863,9.254 h 1.233 1.232 c 0,0 0.617,-5.429 0.863,-9.254 l 0.277,-0.216 c 0.031,0.031 33.094,-24.554 4.53,-60.984 z m -6.902,60.491 c 0,0 -1.479,-1.265 -1.88,-1.913 v -0.062 l 1.787,-39.669 c 0,-0.123 0.185,-0.123 0.185,0 l 1.787,39.669 v 0.062 c -0.4,0.648 -1.879,1.913 -1.879,1.913 z"
     fill="#00684a"
     id="path24" />
  <path
     d="m 144.374,68.830248 -13.778,-33.41 -0.03,-0.093 h -10.72 v 2.246 h 1.73 c 0.525,0 1.019,0.215 1.39,0.585 0.371,0.369 0.556,0.861 0.556,1.384 l -0.309,33.626 c 0,1.046 -0.865,1.907 -1.915,1.938 l -1.761,0.03 v 2.215 h 10.442 v -2.215 l -1.082,-0.03 c -1.05,-0.031 -1.915,-0.892 -1.915,-1.938 v -31.688 l 15.014,35.871 c 0.216,0.523 0.71,0.862 1.266,0.862 0.556,0 1.05,-0.339 1.267,-0.862 l 14.673,-35.071 0.216,30.888 c 0,1.076 -0.864,1.938 -1.946,1.968 h -1.112 v 2.215 h 12.233 v -2.215 h -1.668 c -1.05,0 -1.915,-0.892 -1.946,-1.938 l -0.093,-33.625 c 0,-1.077 0.865,-1.938 1.916,-1.969 l 1.791,-0.031 v -2.246 h -10.441 z"
     fill="#00684a"
     id="path26" />
  <path
     d="m 240.44,74.552248 c -0.341,-0.338 -0.527,-0.799 -0.527,-1.352 v -16.47 c 0,-3.135 -0.929,-5.593 -2.787,-7.345 -1.828,-1.751 -4.367,-2.642 -7.527,-2.642 -4.429,0 -7.928,1.782 -10.375,5.285 -0.031,0.062 -0.124,0.092 -0.217,0.092 -0.093,0 -0.155,-0.061 -0.155,-0.153 l -1.146,-4.395 h -1.92 l -4.925,2.797 v 1.536 h 1.27 c 0.589,0 1.084,0.154 1.425,0.461 0.341,0.307 0.526,0.768 0.526,1.414 v 19.39 c 0,0.553 -0.185,1.014 -0.526,1.352 -0.341,0.338 -0.805,0.522 -1.363,0.522 h -1.239 v 2.243 h 11.336 v -2.243 h -1.239 c -0.557,0 -1.022,-0.184 -1.363,-0.522 -0.34,-0.338 -0.526,-0.799 -0.526,-1.352 v -12.845 c 0,-1.629 0.372,-3.257 1.053,-4.855 0.712,-1.567 1.765,-2.889 3.159,-3.903 1.394,-1.014 3.066,-1.506 4.987,-1.506 2.168,0 3.809,0.676 4.831,2.029 1.022,1.352 1.549,3.103 1.549,5.193 v 15.856 c 0,0.553 -0.186,1.014 -0.527,1.352 -0.34,0.338 -0.805,0.522 -1.362,0.522 h -1.239 v 2.244 h 11.335 v -2.244 h -1.238 c -0.465,0.062 -0.899,-0.123 -1.27,-0.461 z"
     fill="#00684a"
     id="path28" />
  <path
     d="m 344.007,37.861248 c -3.133,-1.669 -6.636,-2.534 -10.414,-2.534 h -14.745 v 2.256 h 1.444 c 0.552,0 1.044,0.216 1.536,0.71 0.46,0.464 0.706,0.989 0.706,1.545 v 33.247 c 0,0.556 -0.246,1.081 -0.706,1.545 -0.461,0.463 -0.984,0.71 -1.536,0.71 h -1.444 v 2.256 h 14.745 c 3.778,0 7.281,-0.865 10.414,-2.534 3.133,-1.668 5.683,-4.14 7.526,-7.292 1.843,-3.151 2.796,-6.952 2.796,-11.278 0,-4.325 -0.953,-8.095 -2.796,-11.277 -1.874,-3.214 -4.393,-5.686 -7.526,-7.354 z m 4.393,18.57 c 0,3.955 -0.707,7.292 -2.089,9.98 -1.382,2.688 -3.226,4.696 -5.499,5.994 -2.273,1.298 -4.792,1.947 -7.495,1.947 h -2.98 c -0.553,0 -1.045,-0.217 -1.536,-0.711 -0.461,-0.464 -0.707,-0.989 -0.707,-1.545 v -31.362 c 0,-0.556 0.215,-1.05 0.707,-1.545 0.461,-0.463 0.983,-0.71 1.536,-0.71 h 2.98 c 2.703,0 5.222,0.649 7.495,1.946 2.273,1.298 4.117,3.307 5.499,5.995 1.382,2.688 2.089,6.056 2.089,10.011 z"
     fill="#00684a"
     id="path30" />
  <path
     d="m 389.184,58.686248 c -1.363,-1.576 -3.995,-2.904 -7.092,-3.615 4.274,-2.132 6.472,-5.129 6.472,-8.991 0,-2.101 -0.557,-3.986 -1.672,-5.593 -1.115,-1.606 -2.694,-2.904 -4.707,-3.8 -2.013,-0.896 -4.366,-1.36 -7.03,-1.36 h -16.691 v 2.256 h 1.331 c 0.558,0 1.053,0.216 1.549,0.71 0.464,0.464 0.712,0.989 0.712,1.545 v 33.247 c 0,0.556 -0.248,1.081 -0.712,1.545 -0.465,0.463 -0.991,0.71 -1.549,0.71 h -1.455 v 2.256 h 18.116 c 2.756,0 5.326,-0.464 7.649,-1.391 2.323,-0.927 4.181,-2.286 5.512,-4.078 1.363,-1.792 2.044,-3.986 2.044,-6.52 -0.031,-2.719 -0.836,-5.036 -2.477,-6.921 z m -20.78,14.986 c -0.464,-0.464 -0.712,-0.989 -0.712,-1.545 v -14.924 h 8.609 c 3.035,0 5.357,0.773 6.968,2.317 1.61,1.545 2.415,3.554 2.415,6.026 0,1.483 -0.371,2.935 -1.053,4.264 -0.712,1.359 -1.765,2.44 -3.189,3.275 -1.394,0.834 -3.128,1.267 -5.141,1.267 h -6.348 c -0.558,0.03 -1.053,-0.217 -1.549,-0.68 z m -0.681,-19.651 v -13.256 c 0,-0.556 0.217,-1.05 0.712,-1.545 0.465,-0.463 0.991,-0.71 1.549,-0.71 h 4.087 c 2.942,0 5.11,0.741 6.473,2.163 1.362,1.452 2.044,3.306 2.044,5.592 0,2.348 -0.651,4.233 -1.92,5.655 -1.27,1.39 -3.19,2.101 -5.729,2.101 z"
     fill="#00684a"
     id="path32" />
  <path
     d="m 197.286,48.713248 c -2.366,-1.293 -5.009,-1.97 -7.867,-1.97 -2.858,0 -5.532,0.646 -7.868,1.97 -2.366,1.294 -4.24,3.172 -5.623,5.543 -1.383,2.371 -2.09,5.143 -2.09,8.222 0,3.079 0.707,5.85 2.09,8.221 1.383,2.371 3.257,4.25 5.623,5.543 2.367,1.293 5.01,1.971 7.868,1.971 2.858,0 5.531,-0.647 7.867,-1.971 2.366,-1.293 4.241,-3.172 5.624,-5.543 1.383,-2.371 2.089,-5.142 2.089,-8.221 0,-3.079 -0.706,-5.851 -2.089,-8.222 -1.383,-2.371 -3.258,-4.218 -5.624,-5.543 z m 2.274,13.765 c 0,3.787 -0.922,6.867 -2.766,9.084 -1.813,2.217 -4.302,3.356 -7.375,3.356 -3.073,0 -5.563,-1.139 -7.376,-3.356 -1.844,-2.217 -2.766,-5.297 -2.766,-9.084 0,-3.788 0.922,-6.867 2.766,-9.084 1.813,-2.217 4.303,-3.356 7.376,-3.356 3.073,0 5.562,1.139 7.375,3.356 1.844,2.248 2.766,5.296 2.766,9.084 z"
     fill="#00684a"
     id="path34" />
  <path
     d="m 306.198,48.713248 c -2.366,-1.293 -5.009,-1.97 -7.867,-1.97 -2.858,0 -5.532,0.646 -7.867,1.97 -2.367,1.294 -4.241,3.172 -5.624,5.543 -1.383,2.371 -2.09,5.143 -2.09,8.222 0,3.079 0.707,5.85 2.09,8.221 1.383,2.371 3.257,4.25 5.624,5.543 2.366,1.293 5.009,1.971 7.867,1.971 2.858,0 5.531,-0.647 7.867,-1.971 2.366,-1.293 4.241,-3.172 5.624,-5.543 1.383,-2.371 2.09,-5.142 2.09,-8.221 0,-3.079 -0.707,-5.851 -2.09,-8.222 -1.383,-2.371 -3.288,-4.218 -5.624,-5.543 z m 2.274,13.765 c 0,3.787 -0.922,6.867 -2.766,9.084 -1.813,2.217 -4.302,3.356 -7.375,3.356 -3.073,0 -5.563,-1.139 -7.376,-3.356 -1.844,-2.217 -2.766,-5.297 -2.766,-9.084 0,-3.819 0.922,-6.867 2.766,-9.084 1.813,-2.217 4.303,-3.356 7.376,-3.356 3.073,0 5.562,1.139 7.375,3.356 1.813,2.248 2.766,5.296 2.766,9.084 z"
     fill="#00684a"
     id="path36" />
  <path
     d="m 262.275,46.743248 c -2.476,0 -4.736,0.526 -6.778,1.577 -2.043,1.052 -3.652,2.475 -4.798,4.3 -1.145,1.794 -1.733,3.805 -1.733,5.94 0,1.918 0.434,3.681 1.331,5.259 0.867,1.515 2.043,2.784 3.528,3.835 l -4.426,6.002 c -0.557,0.742 -0.619,1.732 -0.216,2.536 0.433,0.836 1.238,1.33 2.166,1.33 h 1.269 c -1.238,0.836 -2.228,1.826 -2.909,3.001 -0.805,1.33 -1.207,2.722 -1.207,4.145 0,2.661 1.176,4.857 3.497,6.497 2.291,1.639 5.509,2.474 9.564,2.474 2.816,0 5.509,-0.464 7.954,-1.361 2.476,-0.897 4.488,-2.227 5.973,-3.959 1.517,-1.733 2.29,-3.836 2.29,-6.249 0,-2.537 -0.928,-4.331 -3.095,-6.063 -1.857,-1.454 -4.766,-2.228 -8.387,-2.228 h -12.38 c -0.031,0 -0.062,-0.031 -0.062,-0.031 0,0 -0.031,-0.061 0,-0.092 l 3.219,-4.331 c 0.867,0.402 1.671,0.649 2.383,0.804 0.743,0.155 1.579,0.217 2.507,0.217 2.6,0 4.952,-0.526 6.995,-1.578 2.042,-1.052 3.683,-2.475 4.859,-4.3 1.176,-1.794 1.764,-3.805 1.764,-5.939 0,-2.289 -1.114,-6.466 -4.147,-8.6 0,-0.031 0.031,-0.031 0.031,-0.031 l 6.654,0.742 v -3.062 h -10.647 c -1.671,-0.557 -3.404,-0.835 -5.199,-0.835 z m 3.714,19.334 c -1.177,0.618 -2.445,0.959 -3.714,0.959 -2.074,0 -3.9,-0.743 -5.448,-2.197 -1.547,-1.454 -2.321,-3.588 -2.321,-6.31 0,-2.722 0.774,-4.857 2.321,-6.311 1.548,-1.454 3.374,-2.196 5.448,-2.196 1.299,0 2.537,0.309 3.714,0.959 1.176,0.618 2.135,1.577 2.909,2.846 0.743,1.268 1.145,2.846 1.145,4.702 0,1.887 -0.371,3.464 -1.145,4.702 -0.743,1.268 -1.733,2.227 -2.909,2.846 z m -8.388,11.415 h 8.388 c 2.321,0 3.806,0.464 4.797,1.453 0.99,0.99 1.485,2.321 1.485,3.867 0,2.258 -0.897,4.115 -2.692,5.507 -1.795,1.392 -4.209,2.103 -7.181,2.103 -2.599,0 -4.766,-0.588 -6.344,-1.701 -1.579,-1.114 -2.383,-2.815 -2.383,-4.981 0,-1.361 0.371,-2.629 1.114,-3.743 0.743,-1.113 1.64,-1.918 2.816,-2.505 z"
     fill="#00684a"
     id="path38" />
  <path
     d="m 397.936,77.079248 c -0.612,-0.334 -1.071,-0.82 -1.439,-1.396 -0.337,-0.608 -0.52,-1.246 -0.52,-1.944 0,-0.698 0.183,-1.366 0.52,-1.943 0.337,-0.608 0.827,-1.063 1.439,-1.397 0.612,-0.334 1.286,-0.517 2.051,-0.517 0.766,0 1.439,0.183 2.052,0.517 0.612,0.334 1.071,0.82 1.439,1.397 0.337,0.607 0.52,1.245 0.52,1.943 0,0.698 -0.183,1.367 -0.52,1.944 -0.337,0.607 -0.827,1.062 -1.439,1.396 -0.613,0.334 -1.286,0.517 -2.052,0.517 -0.734,0 -1.439,-0.183 -2.051,-0.517 z m 3.766,-0.455 c 0.521,-0.273 0.888,-0.699 1.194,-1.184 0.276,-0.517 0.429,-1.094 0.429,-1.731 0,-0.638 -0.153,-1.215 -0.429,-1.731 -0.275,-0.516 -0.673,-0.911 -1.194,-1.185 -0.52,-0.273 -1.072,-0.425 -1.715,-0.425 -0.643,0 -1.194,0.152 -1.714,0.425 -0.521,0.274 -0.888,0.699 -1.194,1.185 -0.276,0.516 -0.429,1.093 -0.429,1.731 0,0.637 0.153,1.214 0.429,1.731 0.275,0.516 0.673,0.911 1.194,1.184 0.52,0.273 1.071,0.425 1.714,0.425 0.643,0 1.225,-0.152 1.715,-0.425 z m -3.368,-1.063 v -0.273 l 0.061,-0.031 h 0.184 c 0.061,0 0.123,-0.03 0.153,-0.06 0.061,-0.061 0.061,-0.091 0.061,-0.152 v -2.824 c 0,-0.061 -0.03,-0.122 -0.061,-0.152 -0.061,-0.061 -0.092,-0.061 -0.153,-0.061 h -0.184 l -0.061,-0.03 v -0.274 l 0.061,-0.03 h 1.592 c 0.46,0 0.797,0.091 1.072,0.304 0.276,0.212 0.398,0.486 0.398,0.85 0,0.273 -0.092,0.547 -0.306,0.729 -0.214,0.212 -0.459,0.334 -0.766,0.364 l 0.368,0.122 0.704,1.123 c 0.061,0.091 0.123,0.122 0.214,0.122 h 0.184 l 0.031,0.03 v 0.273 l -0.031,0.031 h -0.949 l -0.061,-0.031 -0.98,-1.639 h -0.245 v 1.093 c 0,0.061 0.031,0.121 0.061,0.152 0.062,0.06 0.092,0.06 0.153,0.06 h 0.184 l 0.061,0.031 v 0.273 l -0.061,0.03 h -1.623 z m 1.562,-1.974 c 0.245,0 0.459,-0.061 0.581,-0.212 0.123,-0.122 0.215,-0.334 0.215,-0.577 0,-0.243 -0.062,-0.425 -0.184,-0.577 -0.123,-0.152 -0.306,-0.213 -0.521,-0.213 h -0.122 c -0.061,0 -0.122,0.03 -0.153,0.061 -0.061,0.061 -0.061,0.091 -0.061,0.152 v 1.366 z"
     fill="#00684a"
     id="path40" />
</svg>
