<?xml version="1.0" encoding="UTF-8" standalone="no"?>
<!-- Created with Inkscape (http://www.inkscape.org/) -->

<svg
   width="120mm"
   height="150mm"
   viewBox="0 0 120 150"
   version="1.1"
   id="svg8"
   inkscape:version="0.92.3 (2405546, 2018-03-11)"
   sodipodi:docname="irazu_logo1.svg"
   enable-background="new"
   inkscape:export-filename="C:\Users\jokog\OneDrive\Imágenes\irazu_logo.svg"
   inkscape:export-xdpi="108.37"
   inkscape:export-ydpi="108.37"
   xmlns:inkscape="http://www.inkscape.org/namespaces/inkscape"
   xmlns:sodipodi="http://sodipodi.sourceforge.net/DTD/sodipodi-0.dtd"
   xmlns="http://www.w3.org/2000/svg"
   xmlns:svg="http://www.w3.org/2000/svg"
   xmlns:rdf="http://www.w3.org/1999/02/22-rdf-syntax-ns#"
   xmlns:cc="http://creativecommons.org/ns#"
   xmlns:dc="http://purl.org/dc/elements/1.1/">
  <defs
     id="defs2" />
  <sodipodi:namedview
     id="base"
     pagecolor="#ffffff"
     bordercolor="#666666"
     borderopacity="1.0"
     inkscape:pageopacity="0.0"
     inkscape:pageshadow="2"
     inkscape:zoom="0.7"
     inkscape:cx="233.32653"
     inkscape:cy="550.33746"
     inkscape:document-units="mm"
     inkscape:current-layer="layer5"
     showgrid="false"
     inkscape:window-width="1920"
     inkscape:window-height="1017"
     inkscape:window-x="-8"
     inkscape:window-y="-8"
     inkscape:window-maximized="1"
     showguides="false"
     inkscape:lockguides="true"
     inkscape:pagecheckerboard="true"
     inkscape:showpageshadow="2"
     inkscape:deskcolor="#d1d1d1" />
  <metadata
     id="metadata5">
    <rdf:RDF>
      <cc:Work
         rdf:about="">
        <dc:format>image/svg+xml</dc:format>
        <dc:type
           rdf:resource="http://purl.org/dc/dcmitype/StillImage" />
      </cc:Work>
    </rdf:RDF>
  </metadata>
  <g
     inkscape:groupmode="layer"
     id="layer5"
     inkscape:label="fondoBlanco"
     style="display:inline;opacity:1">
    <rect
       style="fill:#ffffff;fill-opacity:1;stroke:none;stroke-width:2;stroke-linecap:round;stroke-linejoin:round;stroke-miterlimit:4;stroke-dasharray:none;stroke-dashoffset:0;stroke-opacity:1"
       id="rect1327"
       width="120"
       height="150"
       x="-0.35892868"
       y="0.37083182" />
  </g>
  <g
     inkscape:label="Capa 1"
     inkscape:groupmode="layer"
     id="layer1"
     style="display:inline">
    <path
       inkscape:connector-curvature="0"
       id="path930"
       style="font-style:normal;font-variant:normal;font-weight:normal;font-stretch:normal;font-size:70.5556px;line-height:1.25;font-family:Consolas;-inkscape-font-specification:Consolas;letter-spacing:0px;word-spacing:0px;fill:#000000;fill-opacity:1;stroke:none;stroke-width:0.330202"
       d="M 79.302992,97.123128 H 100.49957 V 17.238256 H 79.302992 v 6.019313 h 14.0594 v 67.846249 h -14.0594 z" />
    <path
       style="fill:#666666;fill-opacity:1;stroke:none;stroke-width:3.542;stroke-linecap:round;stroke-linejoin:round;stroke-miterlimit:4;stroke-dasharray:none;stroke-dashoffset:0;stroke-opacity:1"
       d="M 18.857238,57.14029 V 17.263804 h 10.488838 10.48884 v 2.929313 2.929316 h -6.992559 -6.99256 V 57.14029 91.158147 h 6.99256 6.992559 v 2.929316 2.929316 H 29.346076 18.857238 Z"
       id="path958"
       inkscape:connector-curvature="0" />
    <path
       style="fill:#666666;fill-opacity:1;stroke:none;stroke-width:3.542;stroke-linecap:round;stroke-linejoin:round;stroke-miterlimit:4;stroke-dasharray:none;stroke-dashoffset:0;stroke-opacity:1"
       d="m 79.333426,94.087463 v -2.929316 h 7.087055 7.087052 V 57.14029 23.122433 H 86.420481 79.333426 V 20.193117 17.263804 H 89.916759 100.50009 V 57.14029 97.016779 H 89.916759 79.333426 Z"
       id="path960"
       inkscape:connector-curvature="0" />
    <path
       style="fill:#00a8d4;fill-opacity:1;stroke:none;stroke-width:3.54201;stroke-linecap:round;stroke-linejoin:round;stroke-miterlimit:4;stroke-dasharray:none;stroke-dashoffset:0;stroke-opacity:1"
       d="m 67.994142,43.756378 v -3.77976 h 2.98152 c 1.63984,0 3.68042,0.0876 4.53462,0.19474 3.07501,0.38557 5.60547,1.60106 6.80211,3.26735 0.62532,0.87074 1.36776,2.83519 1.36776,3.619 0,0.46188 -0.0417,0.47843 -1.2048,0.47843 -1.1955,0 -1.2057,-0.004 -1.3217,-0.5845 -0.24865,-1.24329 -2.14452,-2.30711 -4.55094,-2.55366 l -1.23804,-0.12684 v 1.6325 1.6325 h -3.68526 -3.68527 z"
       id="path966"
       inkscape:connector-curvature="0" />
    <path
       style="fill:#00a8d4;fill-opacity:1;stroke:none;stroke-width:3.54201;stroke-linecap:round;stroke-linejoin:round;stroke-miterlimit:4;stroke-dasharray:none;stroke-dashoffset:0;stroke-opacity:1"
       d="m 47.583427,43.756378 v -3.77976 h 3.68527 3.685267 v 3.77976 3.77976 h -3.685267 -3.68527 z"
       id="path968"
       inkscape:connector-curvature="0" />
    <path
       style="fill:#00a8d4;fill-opacity:1;stroke:none;stroke-width:3.54201;stroke-linecap:round;stroke-linejoin:round;stroke-miterlimit:4;stroke-dasharray:none;stroke-dashoffset:0;stroke-opacity:1"
       d="m 52.591613,77.128908 c -3.482414,-0.83611 -5.817179,-1.83182 -8.582861,-3.66036 -4.482724,-2.96377 -7.779744,-7.67884 -8.790233,-12.57093 -0.446215,-2.16027 -0.533382,-2.0222 1.276646,-2.0222 h 1.57394 l 0.220784,0.95649 c 0.345819,1.49817 1.330783,3.69879 2.31244,5.16649 2.19827,3.28668 5.691812,5.67436 10.224259,6.98781 4.107368,1.19027 11.625524,1.20122 16.108814,0.0235 6.31503,-1.65895 10.97625,-6.07551 12.51551,-11.85857 l 0.33954,-1.27567 h 1.5846 1.58462 l -0.12871,0.99218 c -0.32392,2.49715 -2.09132,6.66361 -3.73088,8.7952 -2.33243,3.03236 -6.51931,6.03161 -10.5365,7.54776 -2.68317,1.01267 -4.0956,1.20996 -9.262892,1.29385 -4.583028,0.0744 -4.911812,0.056 -6.709077,-0.37551 z"
       id="path970"
       inkscape:connector-curvature="0" />
    <rect
       style="fill:none;fill-opacity:1;stroke:#e7e7e7;stroke-width:2;stroke-linecap:round;stroke-linejoin:round;stroke-miterlimit:4;stroke-dasharray:none;stroke-dashoffset:0;stroke-opacity:1"
       id="rect989"
       width="100"
       height="100"
       x="9.5114174"
       y="8.085927" />
    <g
       aria-label="irazu"
       style="font-style:normal;font-weight:normal;font-size:19.7556px;line-height:1.25;font-family:sans-serif;letter-spacing:0px;word-spacing:0px;fill:#000000;fill-opacity:1;stroke:none;stroke-width:0.264583"
       id="text999"
       transform="translate(-39.625488,-69.876872)">
      <path
         id="path1020"
         transform="scale(0.26458333)"
         style="font-style:normal;font-variant:normal;font-weight:normal;font-stretch:normal;font-size:35.2778px;font-family:Rubik;-inkscape-font-specification:Rubik;text-align:center;text-anchor:middle;stroke-width:1"
         d="m 231.46484,707.47266 c -0.97778,0 -1.82209,0.3553 -2.5332,1.0664 -0.71111,0.71111 -1.06641,1.55542 -1.06641,2.53321 v 62.13281 c 0,0.97779 0.3553,1.8221 1.06641,2.5332 0.71111,0.71111 1.55542,1.06641 2.5332,1.06641 h 4.9336 c 0.97777,0 1.82209,-0.3553 2.5332,-1.06641 0.71111,-0.7111 1.06641,-1.55541 1.06641,-2.5332 v -62.13281 c 0,-0.97779 -0.3553,-1.8221 -1.06641,-2.53321 -0.71111,-0.7111 -1.55543,-1.0664 -2.5332,-1.0664 z"
         inkscape:connector-curvature="0" />
      <path
         d="m 78.07738,187.18531 q 0.388055,0 0.670278,0.28222 0.282222,0.28222 0.282222,0.67028 v 1.12889 q 0,0.38805 -0.282222,0.67028 -0.282223,0.28222 -0.670278,0.28222 h -2.046111 q -1.975556,0 -3.033889,1.05833 -1.023056,1.02306 -1.023056,2.99861 v 10.30111 q 0,0.38806 -0.282222,0.67028 -0.282222,0.28222 -0.670278,0.28222 h -1.305278 q -0.388055,0 -0.670277,-0.28222 -0.282223,-0.28222 -0.282223,-0.67028 v -16.43944 q 0,-0.38806 0.282223,-0.67028 0.282222,-0.28222 0.670277,-0.28222 h 1.305278 q 0.388056,0 0.670278,0.28222 0.282222,0.28222 0.282222,0.67028 v 1.09361 q 0.705556,-1.05833 1.693334,-1.55222 0.987777,-0.49389 2.575277,-0.49389 z"
         style="font-style:normal;font-variant:normal;font-weight:normal;font-stretch:normal;font-size:35.2778px;font-family:Rubik;-inkscape-font-specification:Rubik;text-align:center;text-anchor:middle;stroke-width:0.264583"
         id="path1022"
         inkscape:connector-curvature="0" />
      <path
         d="m 93.031852,193.92337 v -0.45862 q 0,-1.72861 -1.164167,-2.64583 -1.128889,-0.9525 -2.963333,-0.9525 -1.411111,0 -2.2225,0.49389 -0.776111,0.45861 -1.481667,1.41111 -0.211667,0.28222 -0.458611,0.38806 -0.246945,0.10583 -0.670278,0.10583 h -1.058333 q -0.388056,0 -0.705556,-0.28222 -0.282222,-0.28222 -0.246944,-0.67028 0.105833,-1.05833 1.023055,-2.08139 0.9525,-1.05833 2.504723,-1.72861 1.552222,-0.67028 3.316111,-0.67028 3.280833,0 5.291667,1.83445 2.046111,1.83444 2.046111,5.15055 v 10.75972 q 0,0.38806 -0.282223,0.67028 -0.282222,0.28222 -0.670277,0.28222 h -1.305278 q -0.388056,0 -0.670278,-0.28222 -0.282222,-0.28222 -0.282222,-0.67028 v -1.44638 q -0.564445,1.27 -2.398889,2.01083 -1.834445,0.74083 -3.668889,0.74083 -1.799167,0 -3.210278,-0.635 -1.411111,-0.67028 -2.187222,-1.79916 -0.740834,-1.12889 -0.740834,-2.54 0,-2.64584 1.975556,-4.1275 1.975556,-1.51695 5.256389,-2.04612 z m 0,2.82222 -4.162778,0.67028 q -2.293056,0.35277 -3.563056,1.16416 -1.27,0.77611 -1.27,1.97556 0,0.88194 0.811389,1.5875 0.811389,0.70555 2.469445,0.70555 2.54,0 4.1275,-1.44639 1.5875,-1.44638 1.5875,-3.77472 z"
         style="font-style:normal;font-variant:normal;font-weight:normal;font-stretch:normal;font-size:35.2778px;font-family:Rubik;-inkscape-font-specification:Rubik;text-align:center;text-anchor:middle;stroke-width:0.264583"
         id="path1024"
         inkscape:connector-curvature="0" />
      <path
         d="m 114.54689,202.49587 q 0.38805,0 0.67027,0.28222 0.28223,0.28222 0.28223,0.67028 v 1.12888 q 0,0.38806 -0.28223,0.67028 -0.28222,0.28222 -0.67027,0.28222 h -13.335 q -0.38806,0 -0.67028,-0.28222 -0.28222,-0.28222 -0.28222,-0.67028 v -1.37583 q 0,-0.42333 0.49388,-1.02305 l 9.70139,-11.95917 h -8.89 q -0.38805,0 -0.67027,-0.28222 -0.28223,-0.28223 -0.28223,-0.67028 v -1.12889 q 0,-0.38806 0.28223,-0.67028 0.28222,-0.28222 0.67027,-0.28222 h 12.27667 q 0.38806,0 0.67028,0.28222 0.28222,0.28222 0.28222,0.67028 v 1.37583 q 0,0.35278 -0.21167,0.635 -0.21166,0.28223 -0.28222,0.38806 l -9.77194,11.95917 z"
         style="font-style:normal;font-variant:normal;font-weight:normal;font-stretch:normal;font-size:35.2778px;font-family:Rubik;-inkscape-font-specification:Rubik;text-align:center;text-anchor:middle;stroke-width:0.264583"
         id="path1026"
         inkscape:connector-curvature="0" />
      <path
         d="m 119.29947,188.13781 q 0,-0.38806 0.28222,-0.67028 0.28222,-0.28222 0.67028,-0.28222 h 1.30527 q 0.38806,0 0.67028,0.28222 0.28222,0.28222 0.28222,0.67028 v 9.31333 q 0,2.68111 1.19945,4.05695 1.23472,1.34055 3.56305,1.34055 2.25778,0 3.4925,-1.37583 1.27,-1.37583 1.27,-4.02167 v -9.31333 q 0,-0.38806 0.28223,-0.67028 0.28222,-0.28222 0.67027,-0.28222 h 1.30528 q 0.38806,0 0.67028,0.28222 0.28222,0.28222 0.28222,0.67028 v 16.43944 q 0,0.38806 -0.28222,0.67028 -0.28222,0.28222 -0.67028,0.28222 h -1.30528 q -0.38805,0 -0.67027,-0.28222 -0.28223,-0.28222 -0.28223,-0.67028 v -1.09361 q -1.83444,2.39889 -5.29166,2.39889 -3.38667,0 -5.43278,-2.11666 -2.01083,-2.11667 -2.01083,-5.78556 z"
         style="font-style:normal;font-variant:normal;font-weight:normal;font-stretch:normal;font-size:35.2778px;font-family:Rubik;-inkscape-font-specification:Rubik;text-align:center;text-anchor:middle;stroke-width:0.264583"
         id="path1028"
         inkscape:connector-curvature="0" />
      <path
         id="path1031"
         style="font-style:normal;font-variant:normal;font-weight:normal;font-stretch:normal;font-size:35.2778px;font-family:Rubik;-inkscape-font-specification:Rubik;text-align:center;text-anchor:middle;fill:#00a8d4;fill-opacity:1;stroke:none;stroke-width:0.264583;stroke-opacity:1"
         d="m 60.822152,180.4156 c -0.258705,0 -0.482095,0.094 -0.670243,0.28215 -0.188148,0.18815 -0.282154,0.41155 -0.282154,0.67025 v 2.01124 c 0,0.2587 0.09401,0.4821 0.282154,0.67025 0.188148,0.18815 0.411538,0.28215 0.670243,0.28215 h 2.01073 c 0.258704,0 0.482094,-0.094 0.670242,-0.28215 0.188148,-0.18815 0.282154,-0.41155 0.282154,-0.67025 V 181.368 c 0,-0.2587 -0.09401,-0.4821 -0.282154,-0.67025 -0.188148,-0.18814 -0.411538,-0.28215 -0.670242,-0.28215 z"
         inkscape:connector-curvature="0" />
      <path
         inkscape:connector-curvature="0"
         d="m 139.53303,201.52989 c -0.25871,0 -0.4821,0.094 -0.67025,0.28215 -0.18814,0.18815 -0.28215,0.41155 -0.28215,0.67025 v 2.01124 c 0,0.2587 0.094,0.4821 0.28215,0.67025 0.18815,0.18815 0.41154,0.28215 0.67025,0.28215 h 2.01073 c 0.2587,0 0.48209,-0.094 0.67024,-0.28215 0.18815,-0.18815 0.28215,-0.41155 0.28215,-0.67025 v -2.01124 c 0,-0.2587 -0.094,-0.4821 -0.28215,-0.67025 -0.18815,-0.18814 -0.41154,-0.28215 -0.67024,-0.28215 z"
         style="font-style:normal;font-variant:normal;font-weight:normal;font-stretch:normal;font-size:35.2778px;font-family:Rubik;-inkscape-font-specification:Rubik;text-align:center;text-anchor:middle;fill:#00a8d4;fill-opacity:1;stroke:none;stroke-width:0.264583;stroke-opacity:1"
         id="path1066" />
    </g>
  </g>
</svg>
